<?xml version="1.0" standalone="no"?>
<!DOCTYPE svg PUBLIC "-//W3C//DTD SVG 20010904//EN"
 "http://www.w3.org/TR/2001/REC-SVG-20010904/DTD/svg10.dtd">
<svg version="1.0" xmlns="http://www.w3.org/2000/svg"
 width="1209.000000pt" height="1447.000000pt" viewBox="0 0 1209.000000 1447.000000"
 preserveAspectRatio="xMidYMid meet">
<metadata>
Created by potrace 1.16, written by Peter Selinger 2001-2019
</metadata>
<g transform="translate(0.000000,1447.000000) scale(0.100000,-0.100000)"
fill="#0A3B4D" stroke="none">
<path d="M5905 13093 c-236 -16 -545 -65 -803 -129 -740 -182 -1419 -538
-2002 -1050 -294 -258 -602 -611 -817 -937 -167 -254 -344 -589 -451 -857
-459 -1147 -451 -2457 23 -3594 447 -1075 1285 -1960 2330 -2462 514 -247
1043 -393 1629 -449 184 -17 638 -20 821 -5 1521 128 2871 960 3672 2263 691
1125 877 2520 507 3800 -431 1493 -1575 2688 -3048 3183 -374 125 -735 199
-1141 234 -109 9 -597 11 -720 3z m625 -273 c975 -69 1845 -417 2593 -1038
129 -107 370 -344 500 -492 1275 -1451 1463 -3586 463 -5246 -184 -304 -380
-557 -636 -818 -374 -381 -725 -640 -1180 -870 -496 -252 -993 -399 -1562
-463 -188 -21 -702 -24 -878 -5 -865 94 -1603 380 -2265 877 -963 723 -1592
1789 -1755 2972 -29 217 -40 380 -40 613 0 501 73 950 230 1420 307 919 898
1705 1710 2271 147 103 500 309 528 309 9 0 12 -182 12 -781 0 -696 -2 -783
-16 -802 -9 -12 -52 -91 -97 -176 l-82 -155 -67 -22 c-144 -48 -287 -137 -343
-215 -20 -26 -47 -73 -62 -105 -25 -54 -28 -71 -31 -211 l-4 -153 248 -2 248
-3 12 -49 c17 -67 59 -124 119 -161 40 -25 59 -30 109 -30 117 1 209 81 234
202 l8 38 247 3 247 2 0 134 c0 106 -4 148 -20 199 -48 155 -189 273 -420 352
-62 21 -66 25 -96 81 -17 33 -59 111 -93 174 l-61 114 0 807 0 808 58 26 c636
297 1436 444 2142 395z m-2010 -2470 c98 -28 238 -101 298 -155 27 -24 64 -72
82 -107 32 -58 35 -71 38 -170 l4 -108 -657 0 -657 0 4 103 c3 92 7 110 36
170 21 41 50 81 80 107 85 75 230 146 358 174 100 22 314 15 414 -14z"/>
<path d="M3618 8449 c-200 -26 -362 -162 -430 -358 -23 -65 -23 -71 -23 -571
0 -497 0 -506 23 -584 80 -276 300 -484 574 -541 58 -13 257 -15 1264 -15
l1195 0 -4 828 c-3 904 -1 868 -63 982 -61 113 -166 199 -293 243 l-66 22
-1055 1 c-580 1 -1085 -2 -1122 -7z"/>
<path d="M6715 8450 c-183 -25 -335 -147 -406 -325 l-24 -60 -3 -843 -3 -842
1223 2 1223 3 70 24 c252 85 423 256 506 506 23 69 24 78 27 573 3 547 2 564
-54 679 -54 112 -184 222 -313 266 l-66 22 -1060 1 c-583 1 -1087 -2 -1120 -6z"/>
<path d="M2378 8026 c-168 -45 -254 -240 -173 -395 38 -74 115 -131 198 -146
l37 -7 0 -165 c0 -374 51 -658 161 -892 140 -300 381 -513 714 -631 196 -69
377 -98 657 -107 l196 -6 -49 -144 c-63 -184 -64 -220 -10 -274 34 -35 44 -39
87 -39 54 0 105 25 124 60 6 12 34 87 62 168 27 81 57 166 65 190 l15 42 1786
-2 1786 -3 66 -190 c36 -104 71 -200 78 -212 39 -70 179 -70 225 0 34 53 31
85 -22 242 -28 81 -51 151 -51 155 0 4 89 10 198 13 217 7 353 24 512 63 533
132 864 483 969 1026 30 157 41 291 41 507 l0 198 54 12 c254 57 293 403 58
518 l-57 28 -302 3 -301 3 -5 -498 c-4 -526 -9 -591 -57 -763 -55 -195 -174
-343 -341 -424 -106 -51 -200 -77 -363 -103 -104 -17 -264 -18 -2476 -18
-2498 0 -2454 -1 -2641 45 -350 86 -526 273 -594 634 -23 123 -35 372 -35 769
l0 357 -282 -1 c-195 0 -298 -4 -330 -13z"/>
<path d="M3810 2570 l0 -470 70 0 70 0 0 175 0 174 71 58 71 57 41 -44 c23
-25 120 -129 216 -232 l174 -188 146 0 147 0 59 140 59 140 230 -2 230 -3 60
-137 61 -138 72 0 c40 0 73 1 73 3 0 1 -94 211 -208 467 l-208 465 -84 0 -84
0 -197 -458 -196 -458 -241 255 c-133 141 -242 259 -242 263 1 5 70 65 154
136 84 70 190 159 236 197 l82 70 -88 0 -89 -1 -270 -226 -270 -226 -3 227 -2
226 -70 0 -70 0 0 -470z m1370 310 c8 -19 47 -111 87 -203 40 -93 73 -170 73
-173 0 -2 -81 -4 -181 -4 -141 0 -180 3 -176 13 4 6 43 103 88 215 46 111 86
199 89 195 4 -5 13 -24 20 -43z"/>
<path d="M5810 2570 l0 -470 66 0 66 0 -4 397 c-4 379 -3 395 14 372 9 -13 97
-137 196 -275 98 -138 219 -305 268 -372 l89 -121 78 -1 77 0 0 470 0 470 -66
0 -67 0 5 -383 4 -384 -61 86 c-34 47 -154 210 -267 361 -113 152 -211 286
-219 298 -12 20 -22 22 -96 22 l-83 0 0 -470z"/>
<path d="M7212 3023 c-15 -29 -392 -911 -392 -917 0 -3 31 -6 68 -6 l68 0 59
140 59 140 230 -2 230 -3 60 -137 61 -138 72 0 c40 0 73 1 73 3 0 1 -94 211
-208 467 l-208 465 -81 3 c-70 2 -83 0 -91 -15z m108 -143 c8 -19 47 -111 87
-203 40 -93 73 -170 73 -173 0 -2 -81 -4 -181 -4 -141 0 -180 3 -176 13 4 6
43 103 88 215 46 111 86 199 89 195 4 -5 13 -24 20 -43z"/>
<path d="M7950 2570 l0 -470 70 0 70 0 0 189 0 190 218 3 c203 3 220 5 269 27
107 48 158 137 152 269 -5 101 -39 161 -116 208 -77 46 -137 54 -415 54 l-248
0 0 -470z m512 349 c67 -15 123 -66 134 -124 16 -88 -33 -172 -113 -194 -21
-6 -118 -11 -215 -11 l-178 0 0 170 0 170 160 0 c87 0 183 -5 212 -11z"/>
<path d="M4870 1825 c0 -13 158 -15 1365 -15 1207 0 1365 2 1365 15 0 13 -158
15 -1365 15 -1207 0 -1365 -2 -1365 -15z"/>
</g>
</svg>
