<?xml version="1.0" standalone="no"?>
<!DOCTYPE svg PUBLIC "-//W3C//DTD SVG 20010904//EN"
 "http://www.w3.org/TR/2001/REC-SVG-20010904/DTD/svg10.dtd">
<svg version="1.0" xmlns="http://www.w3.org/2000/svg"
 width="386.000000pt" height="72.000000pt" viewBox="0 0 386.000000 72.000000"
 preserveAspectRatio="xMidYMid meet">
<metadata>
Created by potrace 1.16, written by Peter Selinger 2001-2019
</metadata>
<g transform="translate(0.000000,72.000000) scale(0.100000,-0.100000)"
fill="#C27956" stroke="none">
<path d="M30 635 c0 -3 15 -18 33 -34 l32 -30 -32 -33 c-26 -27 -33 -42 -33
-73 0 -22 7 -49 15 -59 10 -13 15 -44 15 -91 l0 -71 53 -52 53 -52 105 0 105
0 53 54 54 55 -2 68 c-2 58 1 72 18 87 34 31 29 92 -11 133 l-32 33 29 30 c39
41 23 52 -18 12 -30 -29 -38 -32 -98 -32 -64 0 -66 -1 -81 -32 l-15 -32 -14
29 c-13 28 -19 30 -79 35 -51 4 -73 11 -101 33 -35 26 -49 33 -49 22z m221
-116 l21 -42 22 39 c19 35 26 39 64 42 23 2 42 1 42 -2 0 -6 -62 -64 -105 -97
l-26 -21 -57 53 c-31 30 -58 57 -60 61 -2 5 15 8 37 8 38 0 42 -3 62 -41z
m-110 11 c20 -16 21 -19 7 -20 -15 0 -18 -9 -18 -45 l0 -45 46 0 c41 0 45 2
39 20 -8 25 7 26 29 1 14 -15 15 -23 5 -45 -11 -24 -17 -26 -78 -26 -57 0 -68
3 -93 27 -38 36 -38 86 -1 125 32 33 34 34 64 8z m331 -7 c36 -34 36 -73 2
-119 -25 -33 -29 -34 -94 -34 -63 0 -68 2 -79 27 -10 23 -9 29 8 47 l21 20 0
-22 c0 -19 5 -22 45 -22 l45 0 0 45 c0 35 -4 45 -17 45 -14 0 -14 2 2 20 24
26 33 25 67 -7z m-274 -60 c3 -19 -1 -23 -22 -23 -21 0 -26 5 -26 26 0 21 4
25 23 22 14 -2 23 -11 25 -25z m202 2 c0 -20 -5 -25 -25 -25 -18 0 -25 5 -25
18 0 10 3 22 7 25 3 4 15 7 25 7 13 0 18 -7 18 -25z m-117 -127 l-10 -23 -12
23 c-9 17 -9 27 0 44 l12 23 10 -23 c7 -14 7 -30 0 -44z m-196 -60 c-2 -18 -4
-6 -4 27 0 33 2 48 4 33 2 -15 2 -42 0 -60z m383 27 c0 -30 -4 -55 -10 -55 -5
0 -10 25 -10 55 0 30 5 55 10 55 6 0 10 -25 10 -55z m-219 10 c24 -39 31 -39
49 5 12 29 15 30 71 30 l59 0 0 -67 c0 -59 -3 -70 -27 -95 -26 -27 -30 -28
-127 -28 -99 0 -100 0 -133 32 -30 29 -33 37 -33 95 l0 63 60 0 c59 0 61 -1
81 -35z"/>
<path d="M1325 541 c-11 -11 -5 -275 6 -285 3 -4 14 -4 23 0 12 4 15 13 10 28
-4 11 -7 41 -6 66 0 50 29 83 66 78 19 -3 22 -12 26 -80 5 -74 21 -113 38 -93
12 14 -1 172 -15 186 -18 18 -70 15 -93 -6 -20 -18 -20 -18 -20 33 0 72 -12
96 -35 73z"/>
<path d="M653 532 c-8 -5 -9 -13 -3 -22 6 -8 10 -70 10 -137 0 -126 3 -134 40
-111 15 10 24 9 44 -1 21 -12 28 -12 41 -1 15 12 14 15 -10 27 -16 9 -38 12
-55 8 l-29 -6 -3 122 c-3 119 -8 138 -35 121z"/>
<path d="M2304 528 c-5 -7 -7 -25 -5 -40 2 -20 -6 -35 -26 -53 l-28 -25 28 6
27 6 0 -73 c0 -96 8 -109 49 -80 38 27 39 33 6 25 -25 -6 -25 -6 -25 59 0 56
3 65 20 70 11 3 20 10 20 16 0 6 -9 11 -20 11 -17 0 -20 7 -20 39 0 42 -13 60
-26 39z"/>
<path d="M3042 528 c-8 -8 -8 -17 -1 -30 16 -30 -3 -50 -50 -52 -73 -4 -130
-81 -96 -132 11 -17 25 -24 48 -24 17 0 49 -5 70 -11 41 -11 49 -36 21 -63
-32 -32 -124 -9 -124 31 0 14 -2 14 -19 -1 -16 -15 -18 -22 -8 -36 14 -23 50
-40 84 -40 82 0 158 129 80 138 -33 4 -33 5 -5 42 18 25 20 33 10 56 -10 22
-9 29 8 51 23 30 26 56 7 72 -10 8 -17 7 -25 -1z m-38 -120 c22 -31 20 -61 -5
-84 -18 -17 -23 -17 -46 -4 -38 22 -46 53 -22 84 25 32 53 33 73 4z"/>
<path d="M2160 495 c0 -27 -7 -43 -27 -61 l-28 -24 28 6 27 6 0 -75 c0 -93 14
-110 56 -72 l29 25 -27 -6 -28 -6 0 66 c0 49 3 66 14 66 7 0 19 7 26 15 11 13
8 15 -14 15 -24 0 -26 4 -26 40 0 29 -4 40 -15 40 -11 0 -15 -11 -15 -35z"/>
<path d="M1566 427 c-41 -39 -53 -76 -36 -117 18 -42 64 -74 88 -61 38 20 82
81 82 112 0 34 -55 99 -83 99 -9 0 -31 -15 -51 -33z m55 -7 c21 -12 49 -60 49
-86 0 -23 -29 -54 -51 -54 -23 0 -69 56 -69 84 0 24 26 66 41 66 6 0 19 -5 30
-10z"/>
<path d="M3380 453 c-8 -3 -22 -12 -31 -20 -14 -12 -17 -12 -23 2 -3 9 -14 15
-23 13 -15 -3 -17 -15 -14 -93 1 -50 6 -94 11 -98 4 -5 18 -6 30 -2 16 5 19
10 11 18 -6 6 -11 36 -11 67 0 62 18 90 58 90 30 0 36 -15 42 -99 5 -75 13
-89 40 -70 11 8 12 12 3 16 -9 3 -13 28 -13 74 0 56 -4 73 -20 89 -20 20 -33
23 -60 13z"/>
<path d="M846 429 c-29 -23 -36 -55 -10 -45 9 3 18 6 20 6 2 0 4 7 4 15 0 39
72 35 83 -4 5 -19 1 -21 -36 -21 -46 -1 -67 -13 -86 -49 -16 -28 -1 -63 33
-79 22 -10 59 -1 71 17 9 16 25 13 25 -5 0 -9 7 -14 18 -12 9 2 17 9 16 16 -1
6 -2 41 -2 77 -2 50 -7 70 -22 85 -26 26 -80 26 -114 -1z m75 -79 c28 -15 25
-58 -5 -71 -17 -8 -29 -8 -45 0 -22 12 -37 53 -26 70 8 14 51 14 76 1z"/>
<path d="M1160 412 c-49 -47 -53 -85 -14 -131 41 -49 95 -41 129 18 5 9 -1 7
-19 -4 -34 -23 -71 -13 -91 25 -20 38 -19 63 3 83 25 23 47 21 70 -3 17 -18
20 -19 32 -5 11 13 10 19 -5 35 -27 30 -60 24 -105 -18z"/>
<path d="M1726 441 c-4 -5 -2 -12 4 -16 5 -3 10 -35 10 -71 0 -36 5 -74 10
-85 13 -23 67 -26 95 -5 17 12 21 12 30 -1 6 -8 17 -12 25 -8 12 4 14 22 12
88 -4 98 -7 109 -29 105 -14 -2 -16 -14 -14 -74 2 -65 0 -74 -21 -88 -27 -19
-54 -21 -65 -3 -4 6 -10 46 -13 87 -4 59 -8 75 -22 78 -9 2 -19 -1 -22 -7z"/>
<path d="M2000 437 c-55 -43 -68 -127 -26 -167 35 -32 72 -29 109 9 18 17 27
31 21 31 -7 0 -17 -7 -24 -15 -16 -19 -64 -20 -79 -1 -9 11 -2 21 39 50 51 37
64 68 38 94 -15 15 -58 15 -78 -1z m50 -26 c16 -30 13 -38 -26 -62 -30 -18
-38 -19 -45 -8 -10 16 -3 57 13 76 16 19 46 16 58 -6z"/>
<path d="M2444 432 c-31 -24 -44 -55 -44 -100 0 -73 80 -110 128 -59 30 32 28
43 -3 19 -26 -21 -56 -19 -75 3 -8 10 2 21 40 49 51 37 64 68 38 94 -17 17
-60 14 -84 -6z m56 -21 c14 -26 5 -44 -31 -65 -26 -15 -33 -16 -40 -5 -13 21
-11 42 7 67 19 27 50 29 64 3z"/>
<path d="M2704 425 c-28 -29 -24 -51 7 -35 10 6 19 17 19 25 0 25 48 23 68 -3
20 -26 14 -32 -32 -32 -37 0 -48 -5 -70 -31 -31 -37 -32 -39 -5 -73 24 -30 63
-34 91 -9 17 15 19 15 33 -3 13 -18 15 -18 32 -1 10 10 13 17 5 17 -8 0 -12
21 -12 68 0 81 -15 102 -74 102 -26 0 -44 -7 -62 -25z m81 -77 c32 -14 32 -43
0 -64 -30 -20 -62 -11 -77 22 -20 44 21 68 77 42z"/>
<path d="M3143 435 c-11 -8 -28 -33 -37 -56 -29 -72 3 -129 72 -129 27 0 82
43 70 55 -3 3 -11 -1 -18 -10 -16 -19 -64 -20 -79 -1 -10 11 -3 20 34 47 48
35 65 70 45 94 -16 19 -60 19 -87 0z m56 -27 c11 -30 6 -41 -29 -62 -34 -20
-50 -14 -50 17 0 56 62 90 79 45z"/>
<path d="M3540 414 c-33 -30 -40 -43 -40 -74 0 -47 37 -90 78 -90 27 0 93 53
80 65 -2 3 -13 -4 -23 -15 -10 -11 -26 -20 -35 -20 -27 0 -59 32 -70 68 -7 27
-6 36 11 53 23 23 47 24 70 3 19 -17 39 -11 39 11 0 16 -30 35 -54 35 -9 0
-34 -16 -56 -36z"/>
<path d="M3732 434 c-51 -36 -67 -113 -31 -158 28 -36 80 -36 116 0 14 14 22
28 18 32 -3 4 -11 -1 -16 -11 -12 -21 -71 -23 -88 -3 -9 11 -5 18 23 36 35 21
76 65 76 81 0 15 -32 39 -53 39 -13 0 -33 -7 -45 -16z m46 -16 c20 -20 14 -46
-17 -67 -40 -29 -51 -26 -51 13 0 52 39 83 68 54z"/>
<path d="M100 80 c0 -6 30 -10 70 -10 40 0 70 4 70 10 0 6 -30 10 -70 10 -40
0 -70 -4 -70 -10z"/>
<path d="M310 80 c0 -6 28 -10 65 -10 37 0 65 4 65 10 0 6 -28 10 -65 10 -37
0 -65 -4 -65 -10z"/>
</g>
</svg>
