<?xml version="1.0" standalone="no"?>
<!DOCTYPE svg PUBLIC "-//W3C//DTD SVG 20010904//EN"
 "http://www.w3.org/TR/2001/REC-SVG-20010904/DTD/svg10.dtd">
<svg version="1.0" xmlns="http://www.w3.org/2000/svg"
 width="512.000000pt" height="233.000000pt" viewBox="0 0 512.000000 233.000000"
 preserveAspectRatio="xMidYMid meet">
<metadata>
Created by potrace 1.16, written by Peter Selinger 2001-2019
</metadata>
<g transform="translate(0.000000,233.000000) scale(0.100000,-0.100000)"
fill="#6d071a" stroke="none">
<path d="M1960 1806 c0 -7 28 -28 62 -47 68 -37 138 -101 138 -125 0 -19 -21
-13 -108 28 -47 22 -70 28 -90 23 -52 -14 -98 -6 -197 35 -55 23 -111 44 -125
47 -24 5 -24 4 -8 -12 9 -10 56 -39 104 -64 95 -50 122 -81 123 -142 2 -76 71
-123 214 -144 81 -12 556 -40 582 -35 6 1 21 2 35 1 l25 -2 -23 -12 c-18 -8
-84 -8 -260 1 -304 15 -509 42 -658 87 -122 36 -108 77 39 109 38 9 34 27 -5
20 -81 -13 -136 -28 -171 -46 -149 -75 21 -188 373 -249 336 -57 931 -49 1235
17 181 40 310 101 329 157 9 23 6 31 -14 51 -33 31 -99 55 -172 63 -45 5 -59
3 -54 -5 4 -7 15 -12 25 -12 10 0 39 -7 65 -16 39 -13 47 -20 44 -38 -5 -32
-94 -62 -264 -91 -157 -27 -220 -32 -194 -15 8 5 30 10 47 10 43 0 155 43 197
75 59 45 83 142 51 210 -12 28 -13 28 -14 7 -1 -35 -50 -112 -70 -112 -3 0 -6
22 -7 49 -1 34 -9 63 -28 95 -15 25 -29 46 -31 46 -3 0 -2 -19 1 -43 11 -79
-40 -139 -152 -178 -73 -25 -126 -20 -280 26 -60 18 -155 43 -210 54 -56 12
-129 36 -169 56 -56 27 -81 34 -125 33 -47 -1 -69 6 -157 49 -61 30 -103 46
-103 39z m-288 -357 c12 -9 39 -21 58 -29 51 -19 62 -34 20 -25 -43 9 -102 38
-119 59 -8 9 -10 23 -6 33 6 16 8 16 15 -3 4 -11 19 -27 32 -35z m1864 13 c-7
-20 -66 -53 -118 -66 -43 -10 -33 9 11 22 47 15 91 48 91 70 0 12 3 13 11 5 6
-6 8 -20 5 -31z m-546 -82 c0 -5 -16 -10 -35 -10 -19 0 -35 5 -35 10 0 6 16
10 35 10 19 0 35 -4 35 -10z m-95 -10 c-28 -12 -125 -12 -125 0 0 6 30 10 73
9 49 0 66 -3 52 -9z m-148 -6 c-3 -3 -12 -4 -19 -1 -8 3 -5 6 6 6 11 1 17 -2
13 -5z" />
<path d="M3122 1808 c-7 -7 -11 -32 -11 -57 2 -32 3 -37 6 -16 8 65 13 75 36
75 13 0 29 -6 37 -12 12 -11 12 -10 1 5 -15 20 -51 23 -69 5z" />
<path d="M2210 1744 c0 -8 5 -12 10 -9 6 4 8 11 5 16 -9 14 -15 11 -15 -7z" />
<path d="M3259 1723 c-13 -15 -12 -15 8 -3 18 12 24 12 40 -1 16 -13 17 -13 4
4 -17 21 -35 22 -52 0z"/>
<path d="M1800 1302 c0 -16 55 -61 95 -78 22 -9 63 -23 90 -31 28 -8 59 -24
71 -34 65 -60 235 -89 521 -89 291 0 451 26 520 84 15 13 55 31 88 41 93 27
175 75 175 103 0 5 -33 0 -72 -10 -252 -64 -817 -81 -1198 -37 -89 10 -264 44
-281 54 -5 4 -9 2 -9 -3z"/>
<path d="M1050 918 c0 -4 6 -8 14 -8 22 0 34 -142 20 -244 -5 -36 -12 -50 -28
-56 -14 -6 8 -9 64 -8 50 0 75 3 60 7 l-25 7 -3 147 -3 147 29 0 c38 0 62 -28
62 -73 0 -28 -6 -40 -25 -53 -13 -8 -29 -13 -35 -9 -5 3 -10 2 -10 -4 0 -18
38 -22 74 -7 35 15 66 59 66 94 0 11 -9 30 -19 43 -18 23 -26 24 -130 25 -61
0 -111 -3 -111 -8z"/>
<path d="M1380 918 c0 -5 6 -8 14 -8 17 0 26 -51 26 -145 0 -104 -9 -145 -34
-155 -14 -6 5 -9 59 -9 58 0 74 3 58 9 -22 9 -23 13 -23 155 0 138 1 145 20
145 11 0 20 4 20 9 0 5 -31 8 -70 7 -38 0 -70 -4 -70 -8z"/>
<path d="M1590 919 c0 -4 9 -9 20 -12 19 -5 20 -13 20 -139 0 -135 -3 -151
-30 -161 -8 -3 19 -5 60 -6 55 0 69 3 53 9 -22 9 -23 13 -23 155 0 138 1 145
20 145 11 0 20 4 20 8 0 4 -31 8 -70 8 -38 -1 -70 -4 -70 -7z"/>
<path d="M1887 909 c-54 -28 -77 -71 -77 -142 0 -32 6 -73 14 -92 16 -37 68
-75 104 -75 32 0 27 -15 -14 -40 -36 -23 -41 -40 -5 -21 16 9 39 6 105 -11 80
-21 86 -22 118 -6 l33 17 -33 0 c-37 1 -152 33 -152 42 0 4 17 10 38 14 94 17
149 94 140 196 -9 92 -68 139 -173 139 -40 -1 -73 -8 -98 -21z m154 -12 c72
-55 67 -242 -7 -276 -61 -28 -114 -5 -145 63 -34 75 -19 174 32 210 27 19 97
21 120 3z"/>
<path d="M2230 919 c0 -5 9 -9 20 -9 19 0 20 -7 20 -117 0 -134 9 -160 60
-185 68 -35 170 -13 197 42 7 15 13 65 13 120 0 108 6 140 26 140 8 0 14 4 14
9 0 5 -22 8 -50 8 -52 -2 -65 -11 -30 -20 18 -5 20 -14 20 -111 0 -58 -5 -116
-11 -130 -22 -47 -108 -58 -151 -19 -15 14 -18 35 -18 140 0 100 3 123 14 123
8 0 17 4 20 9 3 5 -28 9 -69 9 -41 0 -75 -4 -75 -9z"/>
<path d="M2736 779 c-36 -90 -68 -156 -80 -165 -19 -13 -16 -14 34 -13 30 1
47 3 38 6 -20 5 -23 29 -8 67 9 24 14 26 74 26 63 0 64 -1 75 -31 15 -44 14
-57 -6 -62 -10 -3 16 -5 57 -6 67 -1 72 0 54 13 -12 8 -48 80 -84 165 -43 102
-69 151 -80 151 -10 0 -34 -48 -74 -151z m104 -51 c0 -4 -22 -8 -50 -8 -27 0
-50 2 -50 4 0 2 7 21 16 42 9 22 21 50 26 64 9 24 11 22 34 -34 13 -33 24 -63
24 -68z"/>
<path d="M3060 919 c0 -4 9 -9 20 -12 19 -5 20 -13 20 -139 0 -135 -3 -151
-30 -161 -8 -3 12 -5 45 -5 33 0 50 3 38 5 -30 6 -34 28 -31 147 l3 99 108
-126 c59 -68 116 -127 127 -130 19 -5 20 0 20 138 0 151 4 175 26 175 8 0 14
4 14 8 0 5 -22 8 -50 8 -27 -1 -50 -4 -50 -8 0 -5 9 -8 20 -8 19 0 20 -7 20
-110 0 -60 -3 -110 -7 -110 -5 1 -52 54 -106 120 l-98 118 -44 -1 c-25 -1 -45
-5 -45 -8z"/>
<path d="M3481 885 c1 -40 1 -40 12 -12 10 26 15 28 57 25 l45 -3 3 -90 c2
-49 0 -113 -3 -142 -5 -43 -10 -53 -28 -56 -12 -2 14 -5 58 -5 57 -1 74 2 58
8 -22 9 -23 14 -23 150 l0 140 50 0 c48 0 50 -1 50 -27 0 -35 6 -27 13 17 l5
35 -149 0 -149 0 1 -40z"/>
<path d="M3833 918 c-2 -5 5 -8 15 -8 17 0 21 -10 27 -70 8 -79 -2 -209 -17
-227 -8 -10 14 -13 106 -13 108 0 116 1 116 19 0 11 3 26 6 35 3 9 1 16 -4 16
-6 0 -12 -10 -14 -22 -3 -21 -9 -23 -65 -26 l-63 -3 0 71 0 70 43 0 c36 0 46
-4 55 -22 9 -20 11 -15 11 32 0 43 -2 50 -9 33 -8 -19 -17 -23 -55 -23 l-46 0
3 63 c3 57 5 62 27 65 13 2 39 1 57 -3 26 -4 34 -11 35 -28 1 -17 3 -15 8 8 4
17 6 33 4 37 -5 10 -234 5 -240 -4z"/>
</g>
</svg>
